<svg width="5547" height="846" viewBox="0 0 5547 846" fill="none" xmlns="http://www.w3.org/2000/svg">
<mask id="mask0_102_62" style="mask-type:alpha" maskUnits="userSpaceOnUse" x="2269" y="253" width="296" height="340">
<path d="M2417 253L2564.22 338V508L2417 593L2269.78 508V338L2417 253Z" fill="#FF9900"/>
</mask>
<g mask="url(#mask0_102_62)">
<rect x="2367" y="253" width="100" height="100" fill="#FF9900"/>
<rect x="2487" y="253" width="100" height="100" fill="#FF9900"/>
<rect x="2307" y="373" width="100" height="100" fill="#FF9900"/>
<rect x="2427" y="373" width="100" height="100" fill="#FF9900"/>
<rect x="2247" y="493" width="100" height="100" fill="#FF9900"/>
<rect x="2367" y="493" width="100" height="100" fill="#FF9900"/>
</g>
<path d="M2823.9 505.712C2813.95 505.712 2804.08 504.055 2794.29 500.74C2784.5 497.275 2776.06 493.207 2768.98 488.536L2783.22 467.744C2790 472.113 2797.15 475.428 2804.69 477.688C2812.37 479.948 2820.28 481.078 2828.42 481.078C2834.59 481.078 2839.11 480.174 2841.98 478.366C2844.84 476.407 2846.27 474.147 2846.27 471.586C2846.27 469.929 2845.82 468.573 2844.91 467.518C2844.16 466.313 2842.73 465.258 2840.62 464.354C2838.66 463.299 2835.87 462.32 2832.26 461.416C2828.79 460.512 2824.27 459.457 2818.7 458.252C2803.48 454.937 2792.56 450.417 2785.93 444.692C2779.3 438.967 2775.98 431.81 2775.98 423.222C2775.98 412.675 2780.58 404.238 2789.77 397.91C2798.96 391.431 2811.54 388.192 2827.51 388.192C2837.61 388.192 2846.72 389.849 2854.86 393.164C2863.14 396.328 2870.23 399.793 2876.1 403.56L2861.19 423.448C2855.61 419.983 2849.66 417.346 2843.33 415.538C2837 413.73 2830.75 412.826 2824.57 412.826C2821.11 412.826 2818.25 413.203 2815.99 413.956C2813.73 414.559 2811.99 415.613 2810.79 417.12C2809.58 418.476 2808.98 419.983 2808.98 421.64C2808.98 424.653 2810.94 426.913 2814.86 428.42C2818.77 429.776 2825.48 431.509 2834.97 433.618C2846.42 436.179 2855.39 439.117 2861.86 442.432C2868.34 445.747 2872.79 449.589 2875.2 453.958C2877.76 458.177 2879.04 463.375 2879.04 469.552C2879.04 476.332 2876.93 482.434 2872.71 487.858C2868.64 493.282 2862.47 497.651 2854.18 500.966C2846.04 504.13 2835.95 505.712 2823.9 505.712ZM2955.34 503V416.894H2910.14V390.904H2988.56V503H2955.34ZM2970.48 373.276C2964.15 373.276 2958.88 371.468 2954.66 367.852C2950.44 364.085 2948.33 359.189 2948.33 353.162C2948.33 346.985 2950.44 342.013 2954.66 338.246C2958.88 334.329 2964.15 332.37 2970.48 332.37C2976.96 332.37 2982.23 334.329 2986.3 338.246C2990.52 342.013 2992.63 346.985 2992.63 353.162C2992.63 359.189 2990.52 364.085 2986.3 367.852C2982.23 371.468 2976.96 373.276 2970.48 373.276ZM3044.3 503V390.904H3071.42L3073.9 405.82H3074.81C3079.63 400.999 3085.13 396.855 3091.3 393.39C3097.63 389.925 3105.01 388.192 3113.45 388.192C3126.11 388.192 3135.37 392.26 3141.25 400.396C3147.13 408.532 3150.06 419.681 3150.06 433.844V503H3116.84V438.138C3116.84 430.605 3115.56 425.105 3113 421.64C3110.59 418.175 3106.37 416.442 3100.34 416.442C3095.82 416.442 3091.83 417.497 3088.37 419.606C3085.05 421.565 3081.43 424.427 3077.52 428.194V503H3044.3ZM3212.8 503L3170.54 390.904H3203.99L3221.62 443.788C3223.43 449.363 3225.16 455.013 3226.82 460.738C3228.47 466.463 3230.13 472.339 3231.79 478.366H3232.69C3234.35 472.339 3235.93 466.463 3237.44 460.738C3239.09 455.013 3240.83 449.363 3242.64 443.788L3260.26 390.904H3292.13L3251 503H3212.8Z" fill="#FF9900"/>
</svg>
